<svg xmlns="http://www.w3.org/2000/svg" version="1.1" xmlns:xlink="http://www.w3.org/1999/xlink" xmlns:svgjs="http://svgjs.dev/svgjs" viewBox="0 0 800 800"><defs><linearGradient x1="50%" y1="0%" x2="50%" y2="100%" id="cccoil-grad"><stop stop-color="hsl(184, 74%, 44%)" stop-opacity="1" offset="0%"></stop><stop stop-color="hsl(332, 87%, 70%)" stop-opacity="1" offset="100%"></stop></linearGradient></defs><g stroke="url(#cccoil-grad)" fill="none" stroke-linecap="round"><circle r="495" cx="400" cy="400" stroke-width="10" stroke-dasharray="3110 3110" transform="rotate(360, 400, 400)" opacity="0.05"></circle><circle r="478.5" cx="400" cy="400" stroke-width="10" stroke-dasharray="2903 3007" transform="rotate(348, 400, 400)" opacity="0.08"></circle><circle r="462" cx="400" cy="400" stroke-width="10" stroke-dasharray="2703 2903" transform="rotate(335, 400, 400)" opacity="0.12"></circle><circle r="445.5" cx="400" cy="400" stroke-width="10" stroke-dasharray="2510 2799" transform="rotate(323, 400, 400)" opacity="0.15"></circle><circle r="429" cx="400" cy="400" stroke-width="10" stroke-dasharray="2324 2695" transform="rotate(310, 400, 400)" opacity="0.18"></circle><circle r="412.5" cx="400" cy="400" stroke-width="10" stroke-dasharray="2145 2592" transform="rotate(298, 400, 400)" opacity="0.21"></circle><circle r="396" cx="400" cy="400" stroke-width="10" stroke-dasharray="1973 2488" transform="rotate(286, 400, 400)" opacity="0.25"></circle><circle r="379.5" cx="400" cy="400" stroke-width="10" stroke-dasharray="1809 2384" transform="rotate(273, 400, 400)" opacity="0.28"></circle><circle r="363" cx="400" cy="400" stroke-width="10" stroke-dasharray="1652 2281" transform="rotate(261, 400, 400)" opacity="0.31"></circle><circle r="346.5" cx="400" cy="400" stroke-width="10" stroke-dasharray="1501 2177" transform="rotate(248, 400, 400)" opacity="0.34"></circle><circle r="330" cx="400" cy="400" stroke-width="10" stroke-dasharray="1358 2073" transform="rotate(236, 400, 400)" opacity="0.38"></circle><circle r="313.5" cx="400" cy="400" stroke-width="10" stroke-dasharray="1223 1970" transform="rotate(223, 400, 400)" opacity="0.41"></circle><circle r="297" cx="400" cy="400" stroke-width="10" stroke-dasharray="1094 1866" transform="rotate(211, 400, 400)" opacity="0.44"></circle><circle r="280.5" cx="400" cy="400" stroke-width="10" stroke-dasharray="972 1762" transform="rotate(199, 400, 400)" opacity="0.48"></circle><circle r="264" cx="400" cy="400" stroke-width="10" stroke-dasharray="858 1659" transform="rotate(186, 400, 400)" opacity="0.51"></circle><circle r="247.5" cx="400" cy="400" stroke-width="10" stroke-dasharray="751 1555" transform="rotate(174, 400, 400)" opacity="0.54"></circle><circle r="231" cx="400" cy="400" stroke-width="10" stroke-dasharray="651 1451" transform="rotate(161, 400, 400)" opacity="0.57"></circle><circle r="214.5" cx="400" cy="400" stroke-width="10" stroke-dasharray="558 1348" transform="rotate(149, 400, 400)" opacity="0.61"></circle><circle r="198" cx="400" cy="400" stroke-width="10" stroke-dasharray="472 1244" transform="rotate(137, 400, 400)" opacity="0.64"></circle><circle r="181.5" cx="400" cy="400" stroke-width="10" stroke-dasharray="393 1140" transform="rotate(124, 400, 400)" opacity="0.67"></circle><circle r="165" cx="400" cy="400" stroke-width="10" stroke-dasharray="322 1037" transform="rotate(112, 400, 400)" opacity="0.71"></circle><circle r="148.5" cx="400" cy="400" stroke-width="10" stroke-dasharray="257 933" transform="rotate(99, 400, 400)" opacity="0.74"></circle><circle r="132" cx="400" cy="400" stroke-width="10" stroke-dasharray="200 829" transform="rotate(87, 400, 400)" opacity="0.77"></circle><circle r="115.5" cx="400" cy="400" stroke-width="10" stroke-dasharray="150 726" transform="rotate(74, 400, 400)" opacity="0.80"></circle><circle r="99" cx="400" cy="400" stroke-width="10" stroke-dasharray="107 622" transform="rotate(62, 400, 400)" opacity="0.84"></circle><circle r="82.5" cx="400" cy="400" stroke-width="10" stroke-dasharray="71 518" transform="rotate(50, 400, 400)" opacity="0.87"></circle><circle r="66" cx="400" cy="400" stroke-width="10" stroke-dasharray="43 415" transform="rotate(37, 400, 400)" opacity="0.90"></circle><circle r="49.5" cx="400" cy="400" stroke-width="10" stroke-dasharray="21 311" transform="rotate(25, 400, 400)" opacity="0.93"></circle><circle r="33" cx="400" cy="400" stroke-width="10" stroke-dasharray="7 207" transform="rotate(12, 400, 400)" opacity="0.97"></circle><circle r="16.5" cx="400" cy="400" stroke-width="10" stroke-dasharray="0 104" opacity="1.00"></circle></g></svg>